<svg width="38" height="38" viewBox="0 0 38 38" fill="none" xmlns="http://www.w3.org/2000/svg">
<path d="M34.2607 9.14458L23.3277 1.49521C20.3476 -0.592701 15.7732 -0.478815 12.9071 1.74197L3.39761 9.16356C1.4995 10.6441 0 13.681 0 16.0726V29.1695C0 34.0097 3.92908 37.9577 8.76924 37.9577H29.2308C34.0709 37.9577 38 34.0286 38 29.1885V16.3193C38 13.757 36.3486 10.6061 34.2607 9.14458ZM20.4236 30.3653C20.4236 31.1435 19.7782 31.7889 19 31.7889C18.2218 31.7889 17.5764 31.1435 17.5764 30.3653V24.671C17.5764 23.8928 18.2218 23.2474 19 23.2474C19.7782 23.2474 20.4236 23.8928 20.4236 24.671V30.3653Z" fill="#7000FF"/>
</svg>
