<svg width="80" height="89" viewBox="0 0 80 89" fill="none" xmlns="http://www.w3.org/2000/svg">
<path d="M73.044 16.9512L46.8908 1.84922C42.62 -0.616406 37.3365 -0.616406 33.0217 1.84922L6.91255 16.9512C2.64174 19.4168 0 23.9958 0 28.9711V59.0869C0 64.0182 2.64174 68.5972 6.91255 71.1068L33.0657 86.2088C37.3365 88.6744 42.62 88.6744 46.9348 86.2088L73.088 71.1068C77.3588 68.6412 80.0006 64.0622 80.0006 59.0869V28.9711C79.9566 23.9958 77.3148 19.4608 73.044 16.9512ZM36.6761 25.3167C36.6761 23.5115 38.173 22.0145 39.9782 22.0145C41.7834 22.0145 43.2804 23.5115 43.2804 25.3167V48.4319C43.2804 50.2371 41.7834 51.7341 39.9782 51.7341C38.173 51.7341 36.6761 50.2371 36.6761 48.4319V25.3167ZM44.0289 64.4144C43.8088 64.9428 43.5006 65.4271 43.1043 65.8674C42.2677 66.7039 41.167 67.1442 39.9782 67.1442C39.4059 67.1442 38.8335 67.0121 38.3051 66.792C37.7328 66.5718 37.2925 66.2636 36.8522 65.8674C36.4559 65.4271 36.1477 64.9428 35.8835 64.4144C35.6634 63.8861 35.5753 63.3137 35.5753 62.7413C35.5753 61.5966 36.0156 60.4518 36.8522 59.6153C37.2925 59.219 37.7328 58.9108 38.3051 58.6906C39.9342 57.9862 41.8715 58.3824 43.1043 59.6153C43.5006 60.0555 43.8088 60.4958 44.0289 61.0682C44.2491 61.5966 44.3811 62.1689 44.3811 62.7413C44.3811 63.3137 44.2491 63.8861 44.0289 64.4144Z" fill="#FF0000"/>
</svg>
